<svg width="20" height="20" viewBox="0 0 20 20" fill="none" xmlns="http://www.w3.org/2000/svg">
<path d="M9.72927 13.275C10.8289 13.275 11.7605 12.9243 12.5239 12.223C13.2873 11.5217 13.669 10.6723 13.669 9.675C13.669 8.80833 13.3904 8.06667 12.8331 7.45C12.2758 6.83333 11.6001 6.525 10.8062 6.525C10.1092 6.525 9.51169 6.75417 9.01381 7.2125C8.51592 7.67083 8.26698 8.22592 8.26698 8.87775C8.26698 9.15925 8.32092 9.43333 8.42879 9.7C8.53667 9.96667 8.69848 10.2167 8.91423 10.45L10.0096 9.4C9.92659 9.34167 9.86436 9.26875 9.82287 9.18125C9.78138 9.09375 9.76063 9 9.76063 8.9C9.76063 8.66667 9.85191 8.46667 10.0345 8.3C10.217 8.13333 10.4743 8.05 10.8062 8.05C11.1879 8.05 11.5157 8.20417 11.7895 8.5125C12.0633 8.82083 12.2003 9.21667 12.2003 9.7C12.2003 10.2865 11.9679 10.7831 11.5032 11.1897C11.0385 11.5966 10.4577 11.8 9.76063 11.8C8.91091 11.8 8.1923 11.4625 7.6048 10.7875C7.0173 10.1125 6.72354 9.2785 6.72354 8.2855C6.72354 7.76183 6.81897 7.26667 7.00983 6.8C7.20068 6.33333 7.47867 5.91667 7.84378 5.55L6.77333 4.475C6.27545 4.95833 5.88959 5.52733 5.61575 6.182C5.34192 6.83683 5.205 7.5235 5.205 8.242C5.205 9.64733 5.64488 10.8375 6.52464 11.8125C7.4044 12.7875 8.47261 13.275 9.72927 13.275ZM3.4873 20V15.7C2.54132 14.8333 1.80694 13.8208 1.28417 12.6625C0.761389 11.5042 0.5 10.2833 0.5 9C0.5 6.5 1.3713 4.375 3.11389 2.625C4.85648 0.875 6.97249 0 9.4619 0C11.5364 0 13.3744 0.6125 14.976 1.8375C16.5775 3.0625 17.6189 4.65833 18.1002 6.625L19.4694 12.075C19.5357 12.3083 19.4943 12.5208 19.3449 12.7125C19.1955 12.9042 18.9964 13 18.7474 13H16.4323V16.5C16.4323 16.9125 16.2861 17.2656 15.9936 17.5592C15.701 17.8531 15.3494 18 14.9386 18H12.4492V20H10.9556V16.5H14.9386V11.5H17.7766L16.6563 7C16.258 5.38333 15.3867 4.0625 14.0424 3.0375C12.6981 2.0125 11.1713 1.5 9.4619 1.5C7.38739 1.5 5.62405 2.22083 4.17189 3.6625C2.71973 5.10417 1.99365 6.86283 1.99365 8.9385C1.99365 10.0122 2.21206 11.0321 2.64887 11.9983C3.08584 12.9646 3.70554 13.8235 4.50796 14.575L4.98095 15.025V20H3.4873Z" fill="white"/>
</svg>
