<svg width="20" height="20" viewBox="0 0 20 20" fill="none" xmlns="http://www.w3.org/2000/svg">
<path d="M17.7778 0H2.22222C0.994444 0 0 0.994444 0 2.22222V17.7778C0 19.0056 0.994444 20 2.22222 20H17.7778C19.0056 20 20 19.0056 20 17.7778V2.22222C20 0.994444 19.0056 0 17.7778 0ZM5.26444 15.5556C4.49 15.5556 3.86222 14.9278 3.86222 14.1533V9.17889C3.86333 8.40556 4.49111 7.77778 5.26444 7.77778C6.03889 7.77778 6.66667 8.40556 6.66667 9.18V14.1544C6.66667 14.9278 6.03889 15.5556 5.26444 15.5556ZM5.21556 6.35222C4.35889 6.35222 3.78667 5.78111 3.78667 5.01889C3.78667 4.25667 4.35778 3.68556 5.31 3.68556C6.16667 3.68556 6.73889 4.25667 6.73889 5.01889C6.73889 5.78111 6.16778 6.35222 5.21556 6.35222ZM15.31 15.5556C14.5611 15.5556 13.9533 14.9478 13.9533 14.1989V11.3044C13.9533 10.1289 13.23 10 12.9589 10C12.6878 10 11.7833 10.0389 11.7833 11.3044V14.1989C11.7833 14.9478 11.1756 15.5556 10.4267 15.5556H10.3367C9.58778 15.5556 8.98 14.9478 8.98 14.1989V9.18C8.98 8.40556 9.60778 7.77778 10.3822 7.77778C11.1567 7.77778 11.7844 8.40556 11.7844 9.18C11.7844 9.18 12.0978 7.77778 14.2267 7.77778C15.5811 7.77778 16.6667 8.86333 16.6667 11.3044V14.1989C16.6667 14.9478 16.0589 15.5556 15.31 15.5556Z" fill="#1D4065"/>
</svg>
