<svg width="32" height="32" viewBox="0 0 32 32" fill="none" xmlns="http://www.w3.org/2000/svg">
<path d="M27.6686 22.4904C25.1041 19.8421 23.1457 16.9814 21.713 13.9338C22.8603 13.6959 24.0806 13.441 25.3361 13.1776C24.023 13.339 22.7703 13.4962 21.5837 13.6506C19.6491 9.42751 18.7085 4.85325 18.5595 0C15.077 4.50487 12.3565 9.64985 10.3966 15.4321C6.05644 16.3795 3.74648 17.47 3.09553 19.0915C2.53878 20.4808 4.43399 21.8488 8.30033 23.197C7.71967 26.0053 7.28805 28.9396 7.00686 32C9.02157 28.9425 11.2514 26.4981 13.7343 24.7761C17.7398 25.7773 22.7478 26.7672 28.5557 27.7472C28.7033 26.6652 28.8524 25.5847 29 24.5027C24.2339 24.0453 20.1777 23.5666 16.8316 23.0667C20.0399 21.7228 23.6293 21.4693 27.6672 22.4889L27.6686 22.4904ZM8.68977 21.4339C6.49228 20.7909 5.28317 20.1183 5.06385 19.413C4.75876 18.4358 6.47963 17.5819 10.0128 16.6061C9.51787 18.1696 9.0764 19.7784 8.68977 21.4339Z" fill="white"/>
</svg>
