<svg width="183" height="32" viewBox="0 0 183 32" fill="none" xmlns="http://www.w3.org/2000/svg">
<path d="M24.8482 22.4904C22.2651 19.8421 20.2924 16.9814 18.8493 13.9338C20.0049 13.6959 21.2341 13.441 22.4988 13.1776C21.1761 13.339 19.9142 13.4962 18.719 13.6506C16.7703 9.42751 15.8229 4.85325 15.6728 0C12.1649 4.50487 9.4246 9.64985 7.45045 15.4321C3.0787 16.3795 0.751917 17.47 0.0962253 19.0915C-0.464582 20.4808 1.44443 21.8488 5.33892 23.197C4.75404 26.0053 4.31927 28.9396 4.03604 32C6.06542 28.9425 8.31149 26.4981 10.8125 24.7761C14.8472 25.7773 19.8916 26.7672 25.7418 27.7472C25.8905 26.6652 26.0406 25.5847 26.1893 24.5027C21.3885 24.0453 17.3028 23.5666 13.9323 23.0667C17.164 21.7228 20.7795 21.4693 24.8468 22.4889L24.8482 22.4904ZM5.73121 21.4339C3.51772 20.7909 2.2998 20.1183 2.07888 19.413C1.77157 18.4358 3.50497 17.5819 7.06383 16.6061C6.56534 18.1696 6.12065 19.7784 5.73121 21.4339Z" fill="white"/>
<path d="M48.6979 20.114L45.1447 8H42.3435L38.7662 20.114L35.6435 8H32.1895L36.3743 24H40.6483L43.7384 14.1122L46.8384 24H51.1124L55.2973 8H51.8545L48.6979 20.114Z" fill="white"/>
<path d="M64.6197 8H61.2974V24H64.6197V8Z" fill="white"/>
<path d="M81.5483 8V19.3719L74.4178 8H70.6196V24H73.9307V12.5615L81.0172 24H84.8593V8H81.5483Z" fill="white"/>
<path d="M96.6501 8H90.8594V24H96.6501C101.754 24 104.279 20.7895 104.279 15.9943C104.279 11.1992 101.754 8 96.6501 8ZM96.4844 21.0657H94.1817V10.923H96.4844C99.4301 10.923 100.781 12.7612 100.781 15.9943C100.781 19.2275 99.4301 21.0657 96.4844 21.0657Z" fill="white"/>
<path d="M124.51 20.114L120.955 8H118.154L114.578 20.114L111.455 8H108L112.186 24H116.46L119.549 14.1122L122.649 24H126.923L131.109 8H127.665L124.51 20.114Z" fill="white"/>
<path d="M137.891 8L132 24H135.399L136.562 20.7003H143.283L144.445 24H147.846L141.954 8H137.891ZM137.537 17.9203L139.929 11.1326L142.31 17.9203H137.537Z" fill="white"/>
<path d="M162.951 12.7839C162.951 10.137 161.423 8 157.802 8H152V24H155.322V16.9573H156.285L160.449 24H164.379L159.562 16.7916C161.732 16.3271 162.951 14.9308 162.951 12.7839ZM157.282 14.5782H155.322V10.7587H157.282C159.054 10.7587 159.773 11.5334 159.773 12.6748C159.773 13.8163 159.054 14.5796 157.282 14.5796V14.5782Z" fill="white"/>
<path d="M174.791 8H169V24H174.791C179.895 24 182.42 20.7895 182.42 15.9943C182.42 11.1992 179.895 8 174.791 8ZM174.625 21.0657H172.322V10.923H174.625C177.571 10.923 178.922 12.7612 178.922 15.9943C178.922 19.2275 177.571 21.0657 174.625 21.0657Z" fill="white"/>
</svg>
